<svg width="327" height="27" viewBox="0 0 327 27" fill="none" xmlns="http://www.w3.org/2000/svg">
    <path
        d="M9.69141 22.5479L14.4766 0.80957H16.083V9.93555L12.3574 26.1367H6.99121L0.599609 0.80957H5.24805L9.69141 22.5479ZM28.3877 0.80957H33.0361L26.2344 26.1367H20.9023L17.4844 10.585V0.80957H19.125L23.5684 22.5479L28.3877 0.80957ZM149.521 5.66309C148.996 5.07064 148.438 4.6263 147.846 4.33008C147.253 4.03385 146.615 3.86296 145.932 3.81738V0.433594C148.484 0.547526 150.626 1.44759 152.357 3.13379L149.521 5.66309ZM145.932 22.7871C146.615 22.7188 147.253 22.5365 147.846 22.2402C148.461 21.944 149.019 21.5111 149.521 20.9414L152.357 23.4365C151.492 24.2796 150.523 24.929 149.452 25.3848C148.381 25.8405 147.208 26.1025 145.932 26.1709V22.7871ZM134.857 13.2852C134.857 11.2572 135.097 9.46842 135.575 7.91895C136.076 6.36947 136.76 5.05924 137.626 3.98828C138.492 2.91732 139.506 2.08561 140.668 1.49316C141.853 0.900716 143.14 0.547526 144.53 0.433594V3.85156C143.778 3.96549 143.072 4.22754 142.411 4.6377C141.75 5.02507 141.169 5.59473 140.668 6.34668C140.167 7.09863 139.768 8.05566 139.472 9.21777C139.198 10.3571 139.05 11.7129 139.027 13.2852C139.05 14.8802 139.198 16.2474 139.472 17.3867C139.768 18.526 140.167 19.4831 140.668 20.2578C141.169 21.0326 141.75 21.625 142.411 22.0352C143.095 22.4453 143.801 22.696 144.53 22.7871V26.1367C143.14 26.0456 141.853 25.7038 140.668 25.1113C139.506 24.5189 138.492 23.6872 137.626 22.6162C136.76 21.5452 136.076 20.235 135.575 18.6855C135.097 17.1133 134.857 15.3132 134.857 13.2852Z"
        fill="#A18A68" />
    <path
        d="M38.71 0.80957H42.8799V26H38.71V0.80957ZM53.4072 14.6523H44.2812V11.8496H53.4072V14.6523ZM44.2812 22.8896H54.4668V26H44.2812V22.8896ZM54.4668 0.80957V3.91992H44.2812V0.80957H54.4668ZM64.2764 0.80957V22.8896H75.8633V26H60.1064V0.80957H64.2764ZM84.2373 0.80957V22.8896H95.8242V26H80.0674V0.80957H84.2373ZM120.639 26H116.4L109.872 7.13281L103.275 26H99.0029L107.821 0.84375H111.889L120.639 26ZM112.128 18.002L113.119 20.7705H106.591L107.548 18.002H112.128ZM157.724 13.2852C157.724 11.2572 157.963 9.46842 158.441 7.91895C158.943 6.34668 159.626 5.02507 160.492 3.9541C161.381 2.86035 162.418 2.02865 163.603 1.45898C164.81 0.866536 166.12 0.52474 167.533 0.433594V3.85156C166.758 3.94271 166.029 4.18197 165.346 4.56934C164.662 4.95671 164.07 5.52637 163.568 6.27832C163.067 7.03027 162.668 7.9873 162.372 9.14941C162.076 10.3115 161.916 11.6901 161.894 13.2852C161.916 14.903 162.076 16.293 162.372 17.4551C162.668 18.5944 163.067 19.5514 163.568 20.3262C164.092 21.1009 164.696 21.6934 165.38 22.1035C166.063 22.4909 166.781 22.7188 167.533 22.7871V26.1709C166.143 26.0798 164.844 25.7493 163.637 25.1797C162.429 24.5872 161.381 23.7555 160.492 22.6846C159.626 21.5908 158.943 20.2578 158.441 18.6855C157.963 17.1133 157.724 15.3132 157.724 13.2852ZM168.9 0.433594C170.29 0.501953 171.578 0.832357 172.763 1.4248C173.97 2.01725 175.007 2.86035 175.873 3.9541C176.762 5.02507 177.457 6.34668 177.958 7.91895C178.459 9.46842 178.71 11.2572 178.71 13.2852C178.71 15.3132 178.459 17.1133 177.958 18.6855C177.457 20.2578 176.762 21.5908 175.873 22.6846C175.007 23.7555 173.982 24.5872 172.797 25.1797C171.612 25.7493 170.313 26.0798 168.9 26.1709V22.7871C169.675 22.696 170.404 22.4567 171.088 22.0693C171.771 21.6592 172.364 21.0781 172.865 20.3262C173.367 19.5514 173.765 18.5944 174.062 17.4551C174.358 16.293 174.517 14.903 174.54 13.2852C174.517 11.6673 174.358 10.2887 174.062 9.14941C173.765 7.9873 173.355 7.03027 172.831 6.27832C172.33 5.50358 171.737 4.92253 171.054 4.53516C170.37 4.125 169.652 3.88574 168.9 3.81738V0.433594ZM184.486 0.80957H188.656L195.424 16.3613V22.6846H194.33L188.656 8.6709V26H184.486V0.80957ZM203.593 0.80957H207.763V26H203.593V8.6709L197.953 22.6846H196.825V16.4297L203.593 0.80957ZM214.052 0.80957H218.222L224.989 16.3613V22.6846H223.896L218.222 8.6709V26H214.052V0.80957ZM233.158 0.80957H237.328V26H233.158V8.6709L227.519 22.6846H226.391V16.4297L233.158 0.80957ZM243.72 0.80957H247.89V26H243.72V0.80957ZM258.417 14.6523H249.291V11.8496H258.417V14.6523ZM249.291 22.8896H259.477V26H249.291V22.8896ZM259.477 0.80957V3.91992H249.291V0.80957H259.477ZM265.014 0.80957H269.115V26H265.014V0.80957ZM282.104 26H277.763L273.012 16.874C272.943 16.874 272.864 16.8854 272.772 16.9082C272.704 16.9082 272.59 16.9082 272.431 16.9082C272.271 16.9082 272.032 16.9082 271.713 16.9082C271.417 16.9082 271.018 16.9082 270.517 16.9082V13.9004H272.841C273.342 13.9004 273.843 13.8206 274.345 13.6611C274.846 13.4788 275.302 13.194 275.712 12.8066C276.122 12.4193 276.452 11.8838 276.703 11.2002C276.954 10.4938 277.079 9.62793 277.079 8.60254C277.079 8.19238 277.022 7.72526 276.908 7.20117C276.794 6.6543 276.555 6.1416 276.19 5.66309C275.849 5.16178 275.359 4.75163 274.721 4.43262C274.083 4.09082 273.24 3.91992 272.191 3.91992H270.517V0.80957H272.26C273.331 0.80957 274.39 0.980469 275.438 1.32227C276.487 1.66406 277.421 2.17676 278.241 2.86035C279.084 3.54395 279.757 4.37565 280.258 5.35547C280.782 6.3125 281.044 7.39486 281.044 8.60254C281.044 10.4255 280.622 11.9749 279.779 13.251C278.936 14.527 277.797 15.4727 276.361 16.0879L282.104 26ZM301.859 5.66309C301.335 5.07064 300.777 4.6263 300.185 4.33008C299.592 4.03385 298.954 3.86296 298.271 3.81738V0.433594C300.823 0.547526 302.965 1.44759 304.696 3.13379L301.859 5.66309ZM298.271 22.7871C298.954 22.7188 299.592 22.5365 300.185 22.2402C300.8 21.944 301.358 21.5111 301.859 20.9414L304.696 23.4365C303.83 24.2796 302.862 24.929 301.791 25.3848C300.72 25.8405 299.547 26.1025 298.271 26.1709V22.7871ZM287.196 13.2852C287.196 11.2572 287.436 9.46842 287.914 7.91895C288.415 6.36947 289.099 5.05924 289.965 3.98828C290.831 2.91732 291.845 2.08561 293.007 1.49316C294.192 0.900716 295.479 0.547526 296.869 0.433594V3.85156C296.117 3.96549 295.411 4.22754 294.75 4.6377C294.089 5.02507 293.508 5.59473 293.007 6.34668C292.506 7.09863 292.107 8.05566 291.811 9.21777C291.537 10.3571 291.389 11.7129 291.366 13.2852C291.389 14.8802 291.537 16.2474 291.811 17.3867C292.107 18.526 292.506 19.4831 293.007 20.2578C293.508 21.0326 294.089 21.625 294.75 22.0352C295.434 22.4453 296.14 22.696 296.869 22.7871V26.1367C295.479 26.0456 294.192 25.7038 293.007 25.1113C291.845 24.5189 290.831 23.6872 289.965 22.6162C289.099 21.5452 288.415 20.235 287.914 18.6855C287.436 17.1133 287.196 15.3132 287.196 13.2852ZM310.678 0.80957H314.848V26H310.678V0.80957ZM325.375 14.6523H316.249V11.8496H325.375V14.6523ZM316.249 22.8896H326.435V26H316.249V22.8896ZM326.435 0.80957V3.91992H316.249V0.80957H326.435Z"
        fill="black" />
</svg>