<?xml version="1.0" encoding="utf-8"?>
<!-- Generator: Adobe Illustrator 19.0.0, SVG Export Plug-In . SVG Version: 6.00 Build 0)  -->
<svg version="1.1" id="Layer_1" xmlns="http://www.w3.org/2000/svg" xmlns:xlink="http://www.w3.org/1999/xlink" x="0px" y="0px"
	 viewBox="128 -128 512 512" style="enable-background:new 128 -128 512 512;" xml:space="preserve">
<style type="text/css">
	.st0{fill:#0F0F0F;}
	.st1{fill:#101010;}
</style>
<g>
	<path class="st0" d="M640,380.1c-65.3,0-130.6,0-197.1,0C501.8,211.8,560.4,44,619.2-123.9c7.1,0,14,0,20.8,0
		C640,44.1,640,212.1,640,380.1z"/>
	<path class="st0" d="M128-122.5c3.2,4.7,7.3,9,9.5,14.1c67.3,162,134.3,324,201.4,486c0.2,0.6,0.2,1.3,0.4,2.4
		c-70.6,0-141,0-211.3,0C128,212.5,128,45,128-122.5z"/>
	<path class="st1" d="M562-124.1C518.6-1,475.3,121.5,431.3,246.3C385.8,121.8,341-0.9,296-124.1C385-124.1,473.3-124.1,562-124.1z"
		/>
</g>
</svg>
